HIERARCHY
ROOT Hips
{
 OFFSET 0.000000 0.000000 0.000000
 CHANNELS 6 Xposition Yposition Zposition Yrotation Xrotation Zrotation
 JOINT Chest
 {
  OFFSET 0.000000 103.927959 -11.547555
  CHANNELS 3 Yrotation Xrotation Zrotation
  JOINT Chest2
  {
   OFFSET 0.000000 116.259650 0.000000
   CHANNELS 3 Yrotation Xrotation Zrotation
   JOINT Chest3
   {
    OFFSET 0.000000 106.135078 0.000000
    CHANNELS 3 Yrotation Xrotation Zrotation
    JOINT Chest4
    {
     OFFSET 0.000000 106.016608 0.000000
     CHANNELS 3 Yrotation Xrotation Zrotation
     JOINT Neck
     {
      OFFSET 0.000000 148.478086 0.000000
      CHANNELS 3 Yrotation Xrotation Zrotation
      JOINT Head
      {
       OFFSET 0.000000 98.684725 0.000000
       CHANNELS 3 Yrotation Xrotation Zrotation
       End Site
       {
        OFFSET 0.000000 183.657339 0.000000
       }
      }
     }
     JOINT RightCollar
     {
      OFFSET -32.301251 83.229558 0.000000
      CHANNELS 3 Yrotation Xrotation Zrotation
      JOINT RightShoulder
      {
       OFFSET -148.983121 0.000000 0.000000
       CHANNELS 3 Yrotation Xrotation Zrotation
       JOINT RightElbow
       {
        OFFSET 0.000000 -318.416921 0.000000
        CHANNELS 3 Yrotation Xrotation Zrotation
        JOINT RightWrist
        {
         OFFSET 0.000000 -260.384535 0.000000
         CHANNELS 3 Yrotation Xrotation Zrotation
         End Site
         {
          OFFSET 0.000000 -194.729091 0.000000
         }
        }
       }
      }
     }
     JOINT LeftCollar
     {
      OFFSET 32.301251 83.229558 0.000000
      CHANNELS 3 Yrotation Xrotation Zrotation
      JOINT LeftShoulder
      {
       OFFSET 148.983121 0.000000 0.000000
       CHANNELS 3 Yrotation Xrotation Zrotation
       JOINT LeftElbow
       {
        OFFSET 0.000000 -318.416921 0.000000
        CHANNELS 3 Yrotation Xrotation Zrotation
        JOINT LeftWrist
        {
         OFFSET 0.000000 -260.384535 0.000000
         CHANNELS 3 Yrotation Xrotation Zrotation
         End Site
         {
          OFFSET 0.000000 -194.729091 0.000000
         }
        }
       }
      }
     }
    }
   }
  }
 }
 JOINT RightHip
 {
  OFFSET -85.448433 0.000000 0.000000
  CHANNELS 3 Yrotation Xrotation Zrotation
  JOINT RightKnee
  {
   OFFSET 0.000000 -444.902608 0.000000
   CHANNELS 3 Yrotation Xrotation Zrotation
   JOINT RightAnkle
   {
    OFFSET 0.000000 -434.916856 0.000000
    CHANNELS 3 Yrotation Xrotation Zrotation
    JOINT RightToe
    {
     OFFSET 0.000000 -65.483541 148.093546
     CHANNELS 3 Yrotation Xrotation Zrotation
     End Site
     {
      OFFSET 0.000000 -15.533754 66.277348
     }
    }
   }
  }
 }
 JOINT LeftHip
 {
  OFFSET 85.448433 0.000000 0.000000
  CHANNELS 3 Yrotation Xrotation Zrotation
  JOINT LeftKnee
  {
   OFFSET 0.000000 -444.902608 0.000000
   CHANNELS 3 Yrotation Xrotation Zrotation
   JOINT LeftAnkle
   {
    OFFSET 0.000000 -434.916856 0.000000
    CHANNELS 3 Yrotation Xrotation Zrotation
    JOINT LeftToe
    {
     OFFSET 0.000000 -65.483541 148.093546
     CHANNELS 3 Yrotation Xrotation Zrotation
     End Site
     {
      OFFSET 0.000000 -15.533754 66.277348
     }
    }
   }
  }
 }
}
MOTION
Frames: 12
Frame Time: 0.016667
-1934.927305 954.224185 3497.984095 -132.516385 9.646171 -1.379729 -2.160985 -4.632741 -0.900742 -0.925424 -7.880972 -0.425326 -0.917219 -2.061292 -0.519327 -0.729594 4.291352 -0.393573 11.502481 17.999781 0.264237 21.064272 -1.869858 -3.236663 1.167653 -4.749127 10.288310 30.351501 -19.692491 -17.004409 -17.707301 -53.217189 60.036390 -18.463999 -6.408447 -3.061441 3.989748 -0.418165 -5.618908 -34.298820 -15.676460 45.802419 -15.347885 -77.425961 -17.723007 -14.079918 -7.143997 -9.299523 2.122110 -8.492558 -3.172594 -0.878438 5.994076 -0.715420 -19.280450 -7.440246 6.770610 0.000000 0.000000 0.000000 9.158252 -9.150513 5.261502 2.182334 4.124690 0.860060 10.750746 -6.255199 -1.579508 -0.000000 -0.000000 0.000000
-1935.104532 954.052199 3498.413600 -132.518083 9.573161 -1.387940 -2.141688 -4.596022 -0.884175 -0.917424 -7.864773 -0.417531 -0.909317 -2.045080 -0.510718 -0.722964 4.303496 -0.387058 11.489839 17.995326 0.256888 21.043898 -1.878423 -3.246886 1.144462 -4.801118 10.244334 30.330674 -19.664171 -16.991948 -17.658747 -53.204974 59.996871 -18.447368 -6.474051 -3.062553 3.931197 -0.457394 -5.656655 -34.243246 -15.698868 45.724986 -15.470632 -77.425026 -17.601266 -14.100630 -7.135176 -9.329210 2.121174 -8.457657 -3.150134 -0.935963 6.005433 -0.806993 -19.214851 -7.395234 6.825283 0.000000 0.000000 0.000000 8.925799 -9.079883 5.285320 2.712545 4.104364 0.991457 10.428440 -6.157104 -1.651557 -0.000000 -0.000000 -0.000000
-1935.281759 953.880213 3498.843105 -132.519770 9.500151 -1.396147 -2.122401 -4.559310 -0.867572 -0.909432 -7.848575 -0.409723 -0.901422 -2.028869 -0.502098 -0.716339 4.315639 -0.380536 11.477200 17.990867 0.249537 21.023530 -1.886991 -3.257116 1.121341 -4.853117 10.200345 30.309864 -19.635842 -16.979501 -17.610221 -53.192739 59.957388 -18.430747 -6.539658 -3.063715 3.872695 -0.496675 -5.694381 -34.187601 -15.721224 45.647548 -15.593369 -77.424054 -17.479549 -14.121341 -7.126376 -9.358906 2.120230 -8.422754 -3.127675 -0.993455 6.016682 -0.898612 -19.149214 -7.350304 6.880016 0.000000 0.000000 0.000000 8.693462 -9.009080 5.308552 3.242656 4.083043 1.122921 10.105989 -6.059435 -1.723915 0.000000 -0.000000 0.000000
-1935.430146 953.744619 3499.241155 -132.522655 9.432810 -1.402346 -2.100904 -4.524084 -0.855801 -0.900291 -7.833017 -0.404069 -0.892387 -2.013297 -0.495515 -0.709022 4.327305 -0.375542 11.466031 17.988869 0.245122 21.004662 -1.891349 -3.262056 1.098271 -4.900856 10.166274 30.283931 -19.605919 -16.960233 -17.567364 -53.180360 59.917532 -18.413563 -6.594570 -3.070900 3.824405 -0.540245 -5.721910 -34.141331 -15.738181 45.560174 -15.756389 -77.422391 -17.316224 -14.146028 -7.115027 -9.382775 2.120192 -8.389892 -3.109094 -1.044914 6.032469 -0.979584 -19.088312 -7.312710 6.928913 0.000000 0.000000 0.000000 8.483633 -8.943216 5.324336 3.721264 4.068780 1.232648 9.810437 -5.983733 -1.783141 0.000000 -0.000000 0.000000
-1935.532579 953.666965 3499.586086 -132.527883 9.373770 -1.405506 -2.074795 -4.491451 -0.852278 -0.888815 -7.818579 -0.402080 -0.881034 -1.998841 -0.492360 -0.700241 4.338135 -0.373119 11.457099 17.991156 0.246895 20.987462 -1.888600 -3.255723 1.073685 -4.942185 10.148701 30.247623 -19.571382 -16.929562 -17.535123 -53.168714 59.879774 -18.395415 -6.630887 -3.088119 3.792568 -0.591451 -5.730258 -34.111754 -15.747298 45.451485 -16.020646 -77.421552 -17.049116 -14.180323 -7.097618 -9.395792 2.121774 -8.359165 -3.095704 -1.087885 6.055659 -1.044945 -19.033500 -7.286559 6.968722 0.000000 0.000000 0.000000 8.305786 -8.883765 5.328442 4.126265 4.066192 1.309133 9.552635 -5.941742 -1.821933 0.000000 -0.000000 0.000000
-1935.606172 953.625702 3499.899562 -132.534319 9.320398 -1.406656 -2.046469 -4.460298 -0.853585 -0.876185 -7.804779 -0.402245 -0.868535 -1.985022 -0.491241 -0.690762 4.348489 -0.372223 11.449638 17.995902 0.251611 20.971759 -1.881644 -3.244085 1.049089 -4.979248 10.141046 30.206201 -19.535248 -16.892080 -17.508562 -53.156934 59.841631 -18.376698 -6.656515 -3.111312 3.770900 -0.646896 -5.728454 -34.091547 -15.750977 45.332851 -16.325139 -77.419755 -16.740455 -14.218613 -7.077676 -9.402987 2.124267 -8.330480 -3.086190 -1.124869 6.083452 -1.099652 -18.983441 -7.267707 7.002647 0.000000 0.000000 0.000000 8.150387 -8.829409 5.325386 4.479870 4.071249 1.363906 9.321871 -5.921325 -1.847306 -0.000000 -0.000000 0.000000
-1935.673423 953.592580 3500.215121 -132.539753 9.270466 -1.406885 -2.020904 -4.428777 -0.854340 -0.864796 -7.790814 -0.402190 -0.857266 -1.971039 -0.490029 -0.682200 4.358966 -0.371262 11.442806 18.000098 0.252462 20.958517 -1.874951 -3.239773 1.029061 -5.014215 10.133504 30.170281 -19.504996 -16.854697 -17.478519 -53.142273 59.795267 -18.358033 -6.684456 -3.134328 3.750798 -0.700669 -5.733324 -34.068226 -15.751143 45.228475 -16.526925 -77.411745 -16.535490 -14.248008 -7.063171 -9.413573 2.126447 -8.305594 -3.080490 -1.157313 6.112024 -1.147888 -18.938873 -7.251019 7.034475 0.000000 0.000000 0.000000 8.011291 -8.781103 5.321531 4.797177 4.079236 1.409747 9.112897 -5.908115 -1.867249 0.000000 -0.000000 0.000000
-1935.739710 953.559949 3500.545605 -132.543750 9.222462 -1.406527 -1.999475 -4.394746 -0.852685 -0.855323 -7.775737 -0.401088 -0.847899 -1.955947 -0.487964 -0.674995 4.370275 -0.369665 11.436811 18.002986 0.245890 20.949346 -1.869276 -3.249453 1.015077 -5.049147 10.121959 30.146755 -19.483616 -16.818282 -17.439185 -53.122543 59.730898 -18.336540 -6.723281 -3.155093 3.728338 -0.754200 -5.754267 -34.037314 -15.745136 45.151105 -16.545611 -77.395065 -16.514857 -14.264656 -7.055917 -9.432631 2.128123 -8.285217 -3.078965 -1.184314 6.141594 -1.190340 -18.901247 -7.235554 7.066066 -0.000000 -0.000000 -0.000000 7.887907 -8.739317 5.319384 5.079285 4.090320 1.449689 8.926910 -5.899289 -1.883588 0.000000 0.000000 0.000000
-1935.799656 953.535459 3500.878171 -132.546748 9.177899 -1.405252 -1.980807 -4.360349 -0.850492 -0.847093 -7.760494 -0.399772 -0.839763 -1.940692 -0.485811 -0.668707 4.381708 -0.368007 11.431438 18.005333 0.235449 20.942621 -1.863850 -3.266460 1.005662 -5.081983 10.110530 30.128714 -19.468131 -16.781946 -17.396451 -53.099911 59.658371 -18.315102 -6.764423 -3.175677 3.707460 -0.806055 -5.781860 -34.003349 -15.735656 45.088024 -16.462015 -77.372434 -16.597456 -14.272399 -7.054038 -9.455060 2.129490 -8.268639 -3.081253 -1.206766 6.171973 -1.226311 -18.869120 -7.222231 7.095556 -0.000000 -0.000000 0.000000 7.780801 -8.703591 5.316586 5.325104 4.104560 1.480724 8.762719 -5.897630 -1.894473 -0.000000 -0.000000 -0.000000
-1935.859626 953.513803 3501.207831 -132.547843 9.139077 -1.403158 -1.965747 -4.330179 -0.847981 -0.840478 -7.747125 -0.398370 -0.833225 -1.927313 -0.483736 -0.663625 4.391736 -0.366414 11.425205 18.006419 0.224989 20.934452 -1.860854 -3.283438 1.000988 -5.108708 10.101758 30.106054 -19.457065 -16.749961 -17.358640 -53.078175 59.599254 -18.302979 -6.795166 -3.196146 3.691365 -0.846023 -5.804674 -33.967378 -15.732673 45.025223 -16.374630 -77.346694 -16.686288 -14.269881 -7.059967 -9.474801 2.129905 -8.255492 -3.086207 -1.228798 6.198709 -1.257902 -18.838880 -7.208718 7.121161 0.000000 0.000000 0.000000 7.685579 -8.673448 5.312168 5.546424 4.116960 1.506551 8.611485 -5.897278 -1.902473 0.000000 0.000000 0.000000
-1935.922234 953.491781 3501.536514 -132.546973 9.107028 -1.400436 -1.954889 -4.305480 -0.844492 -0.835766 -7.736183 -0.396595 -0.828570 -1.916365 -0.481482 -0.659944 4.399941 -0.364695 11.418636 18.004169 0.214485 20.926019 -1.864032 -3.300922 1.003149 -5.128528 10.097795 30.071101 -19.451116 -16.724393 -17.331705 -53.058678 59.566811 -18.307282 -6.807232 -3.219623 3.682616 -0.870441 -5.818286 -33.927708 -15.741361 44.954142 -16.311422 -77.316588 -16.754445 -14.250454 -7.077606 -9.491405 2.129446 -8.246325 -3.093636 -1.252792 6.220779 -1.285656 -18.808679 -7.194205 7.141773 0.000000 -0.000000 -0.000000 7.601233 -8.649513 5.305400 5.745383 4.126755 1.528757 8.471972 -5.897619 -1.907868 -0.000000 -0.000000 0.000000
-1935.984866 953.472594 3501.862290 -132.544201 9.080721 -1.396899 -1.947638 -4.285008 -0.840702 -0.832668 -7.727115 -0.394738 -0.825512 -1.907292 -0.479311 -0.657470 4.406742 -0.363045 11.411213 18.000653 0.203961 20.916154 -1.869648 -3.318382 1.010046 -5.142239 10.096493 30.031520 -19.449586 -16.703176 -17.309596 -53.040103 59.547698 -18.320893 -6.808909 -3.242988 3.678630 -0.882974 -5.827116 -33.886026 -15.756529 44.883299 -16.244528 -77.283372 -16.828723 -14.220743 -7.103041 -9.505394 2.128036 -8.240589 -3.103730 -1.276361 6.239217 -1.309022 -18.780368 -7.179492 7.158499 0.000000 0.000000 -0.000000 7.528755 -8.631173 5.297108 5.919835 4.134800 1.545704 8.345415 -5.899249 -1.910382 -0.000000 -0.000000 -0.000000
